<mxfile host="app.diagrams.net" agent="Mozilla/5.0 (Windows NT 10.0; Win64; x64) AppleWebKit/537.36 (KHTML, like Gecko) Chrome/131.0.0.0 Safari/537.36" version="24.9.3">
  <diagram name="Seite-1" id="sm7ZQYc1HELhqI95HrpD">
    <mxGraphModel dx="1742" dy="796" grid="1" gridSize="10" guides="1" tooltips="1" connect="1" arrows="1" fold="1" page="1" pageScale="1" pageWidth="827" pageHeight="1169" math="0" shadow="0">
      <root>
        <mxCell id="0" />
        <mxCell id="1" parent="0" />
        <mxCell id="mXKbN-393EUc0KhLSOk2-1" value="Client" style="rounded=0;whiteSpace=wrap;html=1;fillColor=#d5e8d4;strokeColor=#82b366;verticalAlign=top;align=left;spacingLeft=10;fontStyle=1;fontSize=14;" parent="1" vertex="1">
          <mxGeometry x="230" y="90" width="500" height="110" as="geometry" />
        </mxCell>
        <mxCell id="mXKbN-393EUc0KhLSOk2-3" value="&lt;b&gt;Device&amp;nbsp;&lt;/b&gt;&lt;div&gt;Android&lt;/div&gt;" style="rounded=1;whiteSpace=wrap;html=1;fillColor=#e1d5e7;strokeColor=#9673a6;" parent="1" vertex="1">
          <mxGeometry x="429" y="100" width="60" height="60" as="geometry" />
        </mxCell>
        <mxCell id="mXKbN-393EUc0KhLSOk2-4" value="&lt;b&gt;Device&amp;nbsp;&lt;/b&gt;&lt;div&gt;PC&lt;/div&gt;" style="rounded=1;whiteSpace=wrap;html=1;fillColor=#e1d5e7;strokeColor=#9673a6;" parent="1" vertex="1">
          <mxGeometry x="509" y="100" width="60" height="60" as="geometry" />
        </mxCell>
        <mxCell id="mXKbN-393EUc0KhLSOk2-5" value="&lt;b&gt;Device&amp;nbsp;&lt;/b&gt;&lt;div&gt;iOS&lt;/div&gt;" style="rounded=1;whiteSpace=wrap;html=1;fillColor=#e1d5e7;strokeColor=#9673a6;" parent="1" vertex="1">
          <mxGeometry x="589" y="100" width="60" height="60" as="geometry" />
        </mxCell>
        <mxCell id="mXKbN-393EUc0KhLSOk2-6" value="Google Cloud" style="rounded=0;whiteSpace=wrap;html=1;fillColor=#f5f5f5;strokeColor=#666666;verticalAlign=top;fontColor=#333333;fontSize=14;align=left;spacingLeft=10;fontStyle=1" parent="1" vertex="1">
          <mxGeometry x="230" y="210" width="500" height="540" as="geometry" />
        </mxCell>
        <mxCell id="mXKbN-393EUc0KhLSOk2-8" value="Google Kubernetes&amp;nbsp;&lt;div&gt;Engine&amp;nbsp;&lt;span style=&quot;background-color: initial;&quot;&gt;Cluster&lt;/span&gt;&lt;/div&gt;" style="rounded=0;whiteSpace=wrap;html=1;fillColor=#dae8fc;strokeColor=#6c8ebf;verticalAlign=top;fontSize=14;align=left;spacingLeft=10;fontStyle=1" parent="1" vertex="1">
          <mxGeometry x="250" y="250" width="330" height="350" as="geometry" />
        </mxCell>
        <mxCell id="mXKbN-393EUc0KhLSOk2-12" value="&lt;div&gt;&lt;b&gt;Cloud Storage&lt;/b&gt;&lt;/div&gt;&lt;div&gt;Cached Images&lt;/div&gt;" style="rounded=1;whiteSpace=wrap;html=1;fillColor=#dae8fc;strokeColor=#6c8ebf;" parent="1" vertex="1">
          <mxGeometry x="600" y="445" width="114" height="70" as="geometry" />
        </mxCell>
        <mxCell id="mXKbN-393EUc0KhLSOk2-13" value="&lt;div&gt;&lt;b&gt;Data Store&lt;/b&gt;&lt;/div&gt;&lt;div&gt;NoSQL Database&lt;/div&gt;" style="rounded=1;whiteSpace=wrap;html=1;fillColor=#dae8fc;strokeColor=#6c8ebf;direction=south;" parent="1" vertex="1">
          <mxGeometry x="597" y="520" width="120" height="70" as="geometry" />
        </mxCell>
        <mxCell id="mXKbN-393EUc0KhLSOk2-14" value="Google Cloud&lt;div style=&quot;font-size: 14px;&quot;&gt;Enabler&lt;/div&gt;" style="rounded=0;whiteSpace=wrap;html=1;fillColor=#f5f5f5;strokeColor=#666666;verticalAlign=top;fontColor=#333333;align=left;spacingLeft=10;fontStyle=1;fontSize=14;" parent="1" vertex="1">
          <mxGeometry x="71" y="210" width="150" height="540" as="geometry" />
        </mxCell>
        <mxCell id="mXKbN-393EUc0KhLSOk2-46" value="" style="group" parent="1" vertex="1" connectable="0">
          <mxGeometry x="370" y="283" width="170" height="140" as="geometry" />
        </mxCell>
        <mxCell id="mXKbN-393EUc0KhLSOk2-38" value="&lt;b&gt;VueJS-Frontend&lt;/b&gt;&lt;div&gt;Deployment&lt;/div&gt;" style="rounded=1;whiteSpace=wrap;html=1;fillColor=#ffe6cc;strokeColor=#d79b00;verticalAlign=top;" parent="mXKbN-393EUc0KhLSOk2-46" vertex="1">
          <mxGeometry width="170" height="140" as="geometry" />
        </mxCell>
        <mxCell id="mXKbN-393EUc0KhLSOk2-39" value="Pod 1" style="rounded=1;whiteSpace=wrap;html=1;fillColor=#FFF7F0;strokeColor=#d79b00;dashed=1;align=center;fontSize=9;" parent="mXKbN-393EUc0KhLSOk2-46" vertex="1">
          <mxGeometry x="6" y="80" width="47" height="20" as="geometry" />
        </mxCell>
        <mxCell id="mXKbN-393EUc0KhLSOk2-40" value="Pod 2" style="rounded=1;whiteSpace=wrap;html=1;fillColor=#FFF7F0;strokeColor=#d79b00;dashed=1;align=center;fontSize=9;" parent="mXKbN-393EUc0KhLSOk2-46" vertex="1">
          <mxGeometry x="61.5" y="80" width="47" height="20" as="geometry" />
        </mxCell>
        <mxCell id="mXKbN-393EUc0KhLSOk2-41" value="..." style="rounded=1;whiteSpace=wrap;html=1;fillColor=#FFF7F0;strokeColor=#d79b00;dashed=1;align=center;fontSize=9;" parent="mXKbN-393EUc0KhLSOk2-46" vertex="1">
          <mxGeometry x="116.5" y="80" width="47" height="20" as="geometry" />
        </mxCell>
        <mxCell id="mXKbN-393EUc0KhLSOk2-42" value="Load Balancer Service" style="rounded=1;whiteSpace=wrap;html=1;fillColor=#FFF7F0;strokeColor=#d79b00;dashed=1;align=center;fontSize=9;" parent="mXKbN-393EUc0KhLSOk2-46" vertex="1">
          <mxGeometry x="6" y="50" width="154" height="20" as="geometry" />
        </mxCell>
        <mxCell id="mXKbN-393EUc0KhLSOk2-43" value="Config" style="rounded=1;whiteSpace=wrap;html=1;fillColor=#FFF7F0;strokeColor=#d79b00;dashed=1;align=center;fontSize=9;" parent="mXKbN-393EUc0KhLSOk2-46" vertex="1">
          <mxGeometry x="6" y="110" width="74" height="20" as="geometry" />
        </mxCell>
        <mxCell id="mXKbN-393EUc0KhLSOk2-44" value="Secrets" style="rounded=1;whiteSpace=wrap;html=1;fillColor=#FFF7F0;strokeColor=#d79b00;dashed=1;align=center;fontSize=9;" parent="mXKbN-393EUc0KhLSOk2-46" vertex="1">
          <mxGeometry x="90" y="110" width="74" height="20" as="geometry" />
        </mxCell>
        <mxCell id="mXKbN-393EUc0KhLSOk2-47" style="edgeStyle=orthogonalEdgeStyle;rounded=0;orthogonalLoop=1;jettySize=auto;html=1;exitX=0.25;exitY=1;exitDx=0;exitDy=0;endArrow=none;endFill=0;" parent="1" source="mXKbN-393EUc0KhLSOk2-52" target="mXKbN-393EUc0KhLSOk2-38" edge="1">
          <mxGeometry relative="1" as="geometry">
            <Array as="points">
              <mxPoint x="455" y="190" />
            </Array>
          </mxGeometry>
        </mxCell>
        <mxCell id="mXKbN-393EUc0KhLSOk2-48" value="" style="endArrow=none;html=1;rounded=0;exitX=0.5;exitY=1;exitDx=0;exitDy=0;entryX=0.5;entryY=0;entryDx=0;entryDy=0;endFill=0;" parent="1" source="mXKbN-393EUc0KhLSOk2-38" target="mXKbN-393EUc0KhLSOk2-11" edge="1">
          <mxGeometry width="50" height="50" relative="1" as="geometry">
            <mxPoint x="380" y="400" as="sourcePoint" />
            <mxPoint x="430" y="350" as="targetPoint" />
          </mxGeometry>
        </mxCell>
        <mxCell id="Ptxsvy76-Qt14zaTsn3k-3" style="edgeStyle=orthogonalEdgeStyle;rounded=0;orthogonalLoop=1;jettySize=auto;html=1;endArrow=none;endFill=0;" parent="1" source="mXKbN-393EUc0KhLSOk2-52" target="Ptxsvy76-Qt14zaTsn3k-1" edge="1">
          <mxGeometry relative="1" as="geometry">
            <Array as="points">
              <mxPoint x="657" y="210" />
              <mxPoint x="657" y="210" />
            </Array>
          </mxGeometry>
        </mxCell>
        <mxCell id="mXKbN-393EUc0KhLSOk2-52" value="&lt;b&gt;Browser&lt;/b&gt;" style="rounded=1;whiteSpace=wrap;html=1;fillColor=#e1d5e7;strokeColor=#9673a6;" parent="1" vertex="1">
          <mxGeometry x="368" y="170" width="342" height="20" as="geometry" />
        </mxCell>
        <mxCell id="mXKbN-393EUc0KhLSOk2-15" value="Secret Manager" style="rounded=1;whiteSpace=wrap;html=1;fillColor=#dae8fc;strokeColor=#6c8ebf;flipV=1;" parent="1" vertex="1">
          <mxGeometry x="91" y="260" width="110" height="40" as="geometry" />
        </mxCell>
        <mxCell id="mXKbN-393EUc0KhLSOk2-16" value="Artifact Registry" style="rounded=1;whiteSpace=wrap;html=1;fillColor=#dae8fc;strokeColor=#6c8ebf;flipV=1;" parent="1" vertex="1">
          <mxGeometry x="91" y="332" width="110" height="40" as="geometry" />
        </mxCell>
        <mxCell id="mXKbN-393EUc0KhLSOk2-17" value="Cloud Build" style="rounded=1;whiteSpace=wrap;html=1;fillColor=#dae8fc;strokeColor=#6c8ebf;flipV=1;" parent="1" vertex="1">
          <mxGeometry x="91" y="403" width="110" height="40" as="geometry" />
        </mxCell>
        <mxCell id="mXKbN-393EUc0KhLSOk2-18" value="Cloud Run" style="rounded=1;whiteSpace=wrap;html=1;fillColor=#dae8fc;strokeColor=#6c8ebf;flipV=1;" parent="1" vertex="1">
          <mxGeometry x="91" y="475" width="110" height="40" as="geometry" />
        </mxCell>
        <mxCell id="mXKbN-393EUc0KhLSOk2-19" value="IAM &amp;amp; Verwaltung" style="rounded=1;whiteSpace=wrap;html=1;fillColor=#dae8fc;strokeColor=#6c8ebf;flipV=1;" parent="1" vertex="1">
          <mxGeometry x="91" y="547" width="110" height="40" as="geometry" />
        </mxCell>
        <mxCell id="mXKbN-393EUc0KhLSOk2-53" value="Cloud Logging" style="rounded=1;whiteSpace=wrap;html=1;fillColor=#dae8fc;strokeColor=#6c8ebf;flipV=1;" parent="1" vertex="1">
          <mxGeometry x="91" y="618" width="110" height="40" as="geometry" />
        </mxCell>
        <mxCell id="mXKbN-393EUc0KhLSOk2-54" value="Cloud Monitoring" style="rounded=1;whiteSpace=wrap;html=1;fillColor=#dae8fc;strokeColor=#6c8ebf;flipV=1;" parent="1" vertex="1">
          <mxGeometry x="91" y="690" width="110" height="40" as="geometry" />
        </mxCell>
        <mxCell id="Ptxsvy76-Qt14zaTsn3k-4" style="edgeStyle=orthogonalEdgeStyle;rounded=0;orthogonalLoop=1;jettySize=auto;html=1;endArrow=none;endFill=0;" parent="1" source="Ptxsvy76-Qt14zaTsn3k-1" target="mXKbN-393EUc0KhLSOk2-12" edge="1">
          <mxGeometry relative="1" as="geometry" />
        </mxCell>
        <mxCell id="Ptxsvy76-Qt14zaTsn3k-1" value="&lt;b&gt;Cloud CDN&lt;/b&gt;&lt;div&gt;Static Content Provider&lt;/div&gt;" style="rounded=1;whiteSpace=wrap;html=1;fillColor=#dae8fc;strokeColor=#6c8ebf;" parent="1" vertex="1">
          <mxGeometry x="597" y="250" width="120" height="50" as="geometry" />
        </mxCell>
        <mxCell id="Ptxsvy76-Qt14zaTsn3k-6" value="Google&amp;nbsp;&lt;div&gt;VertexAI&lt;/div&gt;" style="rounded=0;whiteSpace=wrap;html=1;fillColor=#dae8fc;strokeColor=#6c8ebf;verticalAlign=top;fontSize=14;align=left;spacingLeft=10;fontStyle=1" parent="1" vertex="1">
          <mxGeometry x="250" y="630" width="330" height="113" as="geometry" />
        </mxCell>
        <mxCell id="Ptxsvy76-Qt14zaTsn3k-15" value="&lt;div&gt;&lt;b&gt;Flux.1-Schnell&lt;/b&gt;&lt;/div&gt;&lt;div&gt;Text-to-image model&lt;/div&gt;" style="rounded=1;whiteSpace=wrap;html=1;fillColor=#ffe6cc;strokeColor=#d79b00;" parent="1" vertex="1">
          <mxGeometry x="456" y="651.5" width="113" height="70" as="geometry" />
        </mxCell>
        <mxCell id="Ptxsvy76-Qt14zaTsn3k-16" value="&lt;div&gt;&lt;span style=&quot;background-color: initial;&quot;&gt;&lt;b&gt;TBD&lt;/b&gt;&lt;/span&gt;&lt;/div&gt;&lt;div&gt;&lt;span style=&quot;background-color: initial;&quot;&gt;Text gen model&lt;/span&gt;&lt;/div&gt;" style="rounded=1;whiteSpace=wrap;html=1;fillColor=#ffe6cc;strokeColor=#d79b00;" parent="1" vertex="1">
          <mxGeometry x="333" y="651.5" width="113" height="70" as="geometry" />
        </mxCell>
        <mxCell id="mXKbN-393EUc0KhLSOk2-45" value="" style="group" parent="1" vertex="1" connectable="0">
          <mxGeometry x="370" y="445" width="170" height="140" as="geometry" />
        </mxCell>
        <mxCell id="mXKbN-393EUc0KhLSOk2-11" value="&lt;b&gt;SMC-Service&lt;/b&gt;&lt;div&gt;Deployment&lt;/div&gt;" style="rounded=1;whiteSpace=wrap;html=1;fillColor=#ffe6cc;strokeColor=#d79b00;verticalAlign=top;" parent="mXKbN-393EUc0KhLSOk2-45" vertex="1">
          <mxGeometry width="170" height="140" as="geometry" />
        </mxCell>
        <mxCell id="mXKbN-393EUc0KhLSOk2-23" value="Pod 1" style="rounded=1;whiteSpace=wrap;html=1;fillColor=#FFF7F0;strokeColor=#d79b00;dashed=1;align=center;fontSize=9;" parent="mXKbN-393EUc0KhLSOk2-45" vertex="1">
          <mxGeometry x="6" y="80" width="47" height="20" as="geometry" />
        </mxCell>
        <mxCell id="mXKbN-393EUc0KhLSOk2-24" value="Pod 2" style="rounded=1;whiteSpace=wrap;html=1;fillColor=#FFF7F0;strokeColor=#d79b00;dashed=1;align=center;fontSize=9;" parent="mXKbN-393EUc0KhLSOk2-45" vertex="1">
          <mxGeometry x="61.5" y="80" width="47" height="20" as="geometry" />
        </mxCell>
        <mxCell id="mXKbN-393EUc0KhLSOk2-25" value="..." style="rounded=1;whiteSpace=wrap;html=1;fillColor=#FFF7F0;strokeColor=#d79b00;dashed=1;align=center;fontSize=9;" parent="mXKbN-393EUc0KhLSOk2-45" vertex="1">
          <mxGeometry x="116.5" y="80" width="47" height="20" as="geometry" />
        </mxCell>
        <mxCell id="mXKbN-393EUc0KhLSOk2-35" value="Load Balancer Service" style="rounded=1;whiteSpace=wrap;html=1;fillColor=#FFF7F0;strokeColor=#d79b00;dashed=1;align=center;fontSize=9;" parent="mXKbN-393EUc0KhLSOk2-45" vertex="1">
          <mxGeometry x="6" y="50" width="154" height="20" as="geometry" />
        </mxCell>
        <mxCell id="mXKbN-393EUc0KhLSOk2-36" value="Config" style="rounded=1;whiteSpace=wrap;html=1;fillColor=#FFF7F0;strokeColor=#d79b00;dashed=1;align=center;fontSize=9;" parent="mXKbN-393EUc0KhLSOk2-45" vertex="1">
          <mxGeometry x="6" y="110" width="74" height="20" as="geometry" />
        </mxCell>
        <mxCell id="mXKbN-393EUc0KhLSOk2-37" value="Secrets" style="rounded=1;whiteSpace=wrap;html=1;fillColor=#FFF7F0;strokeColor=#d79b00;dashed=1;align=center;fontSize=9;" parent="mXKbN-393EUc0KhLSOk2-45" vertex="1">
          <mxGeometry x="90" y="110" width="74" height="20" as="geometry" />
        </mxCell>
        <mxCell id="Ptxsvy76-Qt14zaTsn3k-17" value="" style="endArrow=none;html=1;rounded=0;exitX=0.12;exitY=0.998;exitDx=0;exitDy=0;entryX=0.5;entryY=0;entryDx=0;entryDy=0;endFill=0;exitPerimeter=0;" parent="1" source="mXKbN-393EUc0KhLSOk2-11" target="Ptxsvy76-Qt14zaTsn3k-16" edge="1">
          <mxGeometry width="50" height="50" relative="1" as="geometry">
            <mxPoint x="660" y="710" as="sourcePoint" />
            <mxPoint x="710" y="660" as="targetPoint" />
          </mxGeometry>
        </mxCell>
        <mxCell id="Ptxsvy76-Qt14zaTsn3k-18" value="" style="endArrow=none;html=1;rounded=0;exitX=0.842;exitY=1.003;exitDx=0;exitDy=0;entryX=0.5;entryY=0;entryDx=0;entryDy=0;endFill=0;exitPerimeter=0;" parent="1" source="mXKbN-393EUc0KhLSOk2-11" target="Ptxsvy76-Qt14zaTsn3k-15" edge="1">
          <mxGeometry width="50" height="50" relative="1" as="geometry">
            <mxPoint x="484" y="595" as="sourcePoint" />
            <mxPoint x="397" y="662" as="targetPoint" />
          </mxGeometry>
        </mxCell>
        <mxCell id="Ptxsvy76-Qt14zaTsn3k-19" value="" style="endArrow=none;html=1;rounded=0;exitX=1;exitY=0.25;exitDx=0;exitDy=0;entryX=0;entryY=0.5;entryDx=0;entryDy=0;endFill=0;" parent="1" source="mXKbN-393EUc0KhLSOk2-11" target="mXKbN-393EUc0KhLSOk2-12" edge="1">
          <mxGeometry width="50" height="50" relative="1" as="geometry">
            <mxPoint x="652" y="600" as="sourcePoint" />
            <mxPoint x="710" y="667" as="targetPoint" />
          </mxGeometry>
        </mxCell>
        <mxCell id="Ptxsvy76-Qt14zaTsn3k-20" value="" style="endArrow=none;html=1;rounded=0;exitX=0.996;exitY=0.791;exitDx=0;exitDy=0;entryX=0.5;entryY=1;entryDx=0;entryDy=0;exitPerimeter=0;" parent="1" source="mXKbN-393EUc0KhLSOk2-11" target="mXKbN-393EUc0KhLSOk2-13" edge="1">
          <mxGeometry width="50" height="50" relative="1" as="geometry">
            <mxPoint x="640" y="660" as="sourcePoint" />
            <mxPoint x="690" y="610" as="targetPoint" />
          </mxGeometry>
        </mxCell>
      </root>
    </mxGraphModel>
  </diagram>
</mxfile>
